<?xml version="1.0" encoding="utf-8"?>
<!-- Generator: Adobe Illustrator 16.0.0, SVG Export Plug-In . SVG Version: 6.00 Build 0)  -->
<!DOCTYPE svg PUBLIC "-//W3C//DTD SVG 1.1//EN" "http://www.w3.org/Graphics/SVG/1.1/DTD/svg11.dtd">
<svg version="1.1" id="Layer_1" xmlns="http://www.w3.org/2000/svg" xmlns:xlink="http://www.w3.org/1999/xlink" x="0px" y="0px"
	 width="100px" height="100px" viewBox="0 0 100 100" enable-background="new 0 0 100 100" xml:space="preserve">
<path d="M0,50v-2.3c20.9-0.4,38.1-2.7,52.2-7.1c1.6,3.2,3,6.3,4.4,9.6c-1.3,0.3-2.5,0.7-3.8,1.1c-15.7,5.6-29.1,16.5-39.6,32.6
	C5,75,0,63.1,0,50 M1,40c3.1-15.7,13.8-28.8,28-35.4c8,9.7,14.5,19.5,19.7,29.2C35.7,37.6,20,39.7,1,40 M50,100
	c-11.7,0-22.6-4.1-31-10.7c11.7-18.4,25.9-27.9,40.4-32c5.3,14.2,8.3,27.3,10.3,38.7C63.5,98.6,56.9,100,50,100 M37.5,1.6
	C41.6,0.6,45.7,0,50,0c12.8,0,24.6,4.9,33.3,12.8C76.6,20.6,67.9,26.6,56.9,31C51.8,21.3,45.4,11.3,37.5,1.6 M65,48.2
	c-1.4-3.5-3-6.9-4.6-10.5C72,33.1,81.3,26.6,88.7,18.3c7,8.5,11.2,19.5,11.3,31.4C87.6,47,75.9,46.4,65,48.2 M77.5,91.7
	c-2-10.7-4.8-23-9.7-36.1c11-1.6,21.9-0.5,31.6,2C97.3,71.8,89.1,84,77.5,91.7"/>
</svg>
